<svg xmlns="http://www.w3.org/2000/svg" xml:space="preserve" style="enable-background:new 0 0 437.4294 209.6185" viewBox="0 0 437.429 209.619"><path d="M130.033 79.393c-11.486-.23-22.52 9.349-24.504 21.012l49.116.03c-2.173-10.419-11.182-21.046-24.199-21.046-.138 0-.275.002-.413.004z" style="fill:none"/><path d="M95.11 128.109H58.68V65.686c0-1.523-.817-2.433-2.186-2.433h-3.119c-1.315 0-2.234 1-2.234 2.433v67.43c0 1.452.814 2.285 2.235 2.285H95.11c1.484 0 2.482-.938 2.482-2.333v-2.774c0-1.369-.928-2.185-2.482-2.185zm51.346-50.935c-4.825-3.001-10.304-4.525-16.284-4.529h-.02c-5.735 0-11.138 1.464-16.057 4.351-4.916 2.886-8.872 6.837-11.759 11.746-2.898 4.925-4.369 10.332-4.372 16.071-.004 5.719 1.496 11.065 4.456 15.889 2.99 4.92 6.88 8.733 11.89 11.651 4.865 2.863 10.239 4.318 15.97 4.32h.023c8.123 0 14.744-2.586 21.468-8.39.55-.48.852-1.12.852-1.8 0-.608-.175-1.104-.52-1.477l-1.358-1.842-.073-.086c-.264-.264-.693-.615-1.372-.615-.642 0-1.254.221-1.712.614-1.935 1.585-3.546 2.8-4.797 3.618-1.798 1.208-5.822 3.232-12.598 3.232h-.021l-.405.003c-12.264 0-23.473-10.326-24.509-22.481l53.013.032h.004c2.237 0 3.47-1.162 3.47-3.271.004-5.26-1.357-10.395-4.046-15.27-2.698-4.845-6.48-8.804-11.243-11.766zm8.19 23.26-49.117-.03c1.984-11.662 13.019-21.24 24.504-21.01.139-.003.275-.005.413-.005 13.017 0 22.026 10.627 24.2 21.045zm49.393 36.204c5.732 0 11.107-1.45 15.974-4.311 4.938-2.902 8.75-6.713 11.654-11.654 2.86-4.867 4.31-10.257 4.31-16.024 0-5.732-1.45-11.106-4.31-15.975-2.902-4.938-6.714-8.75-11.654-11.653-4.868-2.862-10.243-4.312-15.974-4.312-9.938 0-19.202 4.758-24.352 12.317v-9.438c0-.595-.146-1.079-.411-1.451-.382-.537-1.016-.834-1.873-.834h-2.673c-1.453 0-2.286.833-2.286 2.285v76.143c0 1.257.781 2.037 2.037 2.037h3.367c.921 0 1.642-.699 1.642-1.59v-28.083c5.598 7.794 14.785 12.543 24.549 12.543zm-17.403-14.079c-4.935-4.934-7.683-11.493-7.542-18.025-.137-6.35 2.544-12.751 7.354-17.56 4.852-4.853 11.304-7.556 17.739-7.418 4.369 0 8.486 1.147 12.231 3.404 3.734 2.298 6.746 5.406 8.95 9.236 2.17 3.907 3.269 8.097 3.269 12.47.14 6.462-2.597 12.984-7.509 17.895-4.761 4.762-11.046 7.386-17.254 7.28-6.188.13-12.478-2.52-17.238-7.282zm55.259-42.162h7.567v42.026c0 6.818 4.568 12.131 11.083 12.92.683.105 1.838.157 3.53.157 2.008 0 3.028-.354 3.028-2.285v-2.377c0-1.789-1.334-2.037-2.757-2.037h-.002l-1.787-.049c-2.012-.044-3.489-.762-4.39-2.136-.97-1.48-1.462-3.174-1.462-5.036V80.397h10.093c1.308 0 2.285-1.362 2.285-2.581v-1.931c0-1.4-.836-2.236-2.235-2.236h-10.143V60.686c0-1.462-.797-2.483-1.937-2.483-.187 0-.413 0-.64.089l-2.649.686c-1.21.368-2.017.926-2.017 2.45V73.65h-7.567c-1.418 0-2.335.896-2.335 2.285v1.881c0 1.423 1.048 2.581 2.335 2.581zm137.223 25.873c-4.049-2.923-8.854-5.03-14.29-6.266-6.506-1.397-13.448-5.212-13.321-10.306 0-7.523 6.637-10.192 12.32-10.192 5.358 0 10.22 3.002 13.001 8.015.673 1.286 1.479 1.938 2.396 1.938.33 0 .706-.112.992-.284l2.202-1.152c.595-.34.923-.941.923-1.692 0-.52-.09-.954-.262-1.292-3.636-8.247-10.096-12.429-19.202-12.429-11.73 0-19.612 6.927-19.612 17.235 0 4.313 1.844 7.975 5.475 10.881 3.449 2.798 7.913 4.863 13.27 6.138 4.587 1.085 8.32 2.565 11.099 4.402 1.416.936 2.44 2.054 3.106 3.367.605 1.197.913 2.554.913 4.101.074 2.386-.79 4.518-2.568 6.339-3.145 3.218-8.406 4.669-12.02 4.669h-.108c-3.427 0-6.49-.844-9.104-2.507-2.591-1.648-4.236-3.808-5.029-6.606-.32-1.1-.751-2.174-2.155-2.174-.074 0-.211.014-.406.045l-.51.074-1.881.446-.105.033c-1.024.409-1.61 1.185-1.61 2.131 0 .229.062.66.217 1.11 1.97 8.58 10.243 14.344 20.573 14.344.125.002.25.002.374.002 6.595 0 12.675-2.319 16.728-6.394 3.19-3.208 4.83-7.236 4.748-11.636 0-2.819-.619-5.31-1.807-7.48-1.021-1.868-2.459-3.499-4.347-4.86z" style="fill:#181139"/><path d="M348.904 45.733c0-6.316-3.282-11.87-8.224-15.076a17.85 17.85 0 0 0-9.746-2.895c-9.91 0-17.971 8.062-17.971 17.97 0 4.766 1.877 9.093 4.916 12.313a53.726 53.726 0 0 0-8.767 14.718 32.245 32.245 0 0 0-4.866-.368c-17.716 0-32.129 14.413-32.129 32.129 0 14.685 9.908 27.092 23.387 30.91-6.776 17.346-23.657 29.672-43.374 29.672-16.82 0-31.583-8.966-39.766-22.37a39.21 39.21 0 0 1-7.672.903c9.023 16.99 26.897 28.592 47.438 28.592 23.265 0 43.112-14.879 50.546-35.618.52.025 1.044.04 1.57.04 17.716 0 32.129-14.413 32.129-32.13 0-13.556-8.445-25.17-20.346-29.88a46.624 46.624 0 0 1 7.688-12.464c1 .44 2.048.785 3.133 1.038a17.91 17.91 0 0 0 4.084.486c9.909 0 17.97-8.061 17.97-17.97zm-44.658 83.795c-13.787 0-25.004-11.217-25.004-25.004S290.46 79.52 304.246 79.52s25.004 11.217 25.004 25.004-11.217 25.004-25.004 25.004zm26.688-94.64c.645 0 1.273.066 1.888.175 5.082.897 8.957 5.334 8.957 10.67 0 5.98-4.865 10.845-10.845 10.845s-10.846-4.865-10.846-10.846c0-1.396.274-2.728.757-3.955 1.586-4.027 5.505-6.89 10.089-6.89z" style="fill:#ef3939"/></svg>